# xmcd
#
# Track frame offsets:
#	150
#	17862
#	29121
#	42903
#	62019
#	80581
#	103084
#	123621
#	140488
#	160178
#	181548
#	194488
#	212486
#	225144
#	249894
#	263396
#	284765
#	309517
#	322455
#	334261
#
# Disc length: 4689 seconds
#
# Revision: 1
# Processed by: cddbd v1.5.2PL0 Copyright (c) Steve Scherf et al.
# Submitted via: audiograbber 1.83.01
#
DISCID=21124f14
DTITLE=Various Artist - Clubbers Guide 2008
DYEAR=2008
DGENRE=Club
TTITLE0=Re-Fuge feat. Nicole Tyler - So Real (Plastik Funk RMX)
TTITLE1=Klaas - The Way (Original Mix)
TTITLE2=Dirty South feat. Rudy - Let it go (Axwell RMX)
TTITLE3=Fragma - Toca's Miracle (Richard Durand RMX)
TTITLE4=Deadmau5 vs. Jelo - The Reward is Cheese
TTITLE5=Dirty South - Minority (Dirty South RMX)
TTITLE6=Dohr und Mangold pres. The Tanc - In Chicago (Original Mix)
TTITLE7=Butch - Falling (Original Mix)
TTITLE8=DJ Falk - Busted (Miami Club Mix)
TTITLE9=Lee-Cabrera feat. Alex Cartana - Shake it (Move a little closer) (DJ An
TTITLE9=toine vs. Mad Mark RMX)
TTITLE10=Matty Menck and Terri B. - Sunrize (Club Mix)
TTITLE11=CJ Stone - Be Loved (Phunk Investigation RMX)
TTITLE12=Trick and Kubic feat. Daniel Agust - Thinking of us (Club Mix)
TTITLE13=Ultra DJ's - That Look (Goodwill RMX)
TTITLE14=Hacky and Tony - Remember (8-Bit Mix)
TTITLE15=Bodybangers - Famous (Deniz Koyu RMX)
TTITLE16=Big Bass vs. Michelle Narine - What you do (Playing with Stones) (Thom
TTITLE16=as Gold Mix)
TTITLE17=Vaca - Move Me 2008 (Daargard and Morane RMX)
TTITLE18=Andrea Doria vs. LXR - Beauty of Silence (Inpetto Edit)
TTITLE19=Gold, Diaz and Younf Rebels - Don't you want me (Dave Spoon Mix)
EXTD=
EXTT0=
EXTT1=
EXTT2=
EXTT3=
EXTT4=
EXTT5=
EXTT6=
EXTT7=
EXTT8=
EXTT9=
EXTT10=
EXTT11=
EXTT12=
EXTT13=
EXTT14=
EXTT15=
EXTT16=
EXTT17=
EXTT18=
EXTT19=
PLAYORDER=
